<svg xmlns="http://www.w3.org/2000/svg" viewBox="0 0 64 64">
  <circle cx="32" cy="32" r="30" fill="#4F8EF7"/>
  <path d="M32 16c-8 0-14 6-14 14 0 7 5 13 12 14v-4c-5-1-8-6-8-10 0-6 5-10 10-10s10 4 10 10c0 4-3 9-8 10v4c7-1 12-7 12-14 0-8-6-14-14-14z" fill="#fff"/>
  <path d="M32 24c-4 0-7 3-7 7 0 3 2 6 5 7v-2c-2-1-3-3-3-5 0-3 2-5 5-5s5 2 5 5c0 2-1 4-3 5v2c3-1 5-4 5-7 0-4-3-7-7-7z" fill="#FFB300"/>
  <path d="M32 32c-2 0-3 1-3 3 0 1 1 2 2 2v-1c-1 0-1-1-1-1 0-1 1-2 2-2s2 1 2 2c0 0-1 1-1 1v1c1 0 2-1 2-2 0-2-1-3-3-3z" fill="#41D1FF"/>
</svg>
